<svg height="64" viewBox="0 0 64 64" width="64" xmlns="http://www.w3.org/2000/svg" xmlns:xlink="http://www.w3.org/1999/xlink"><linearGradient id="a" gradientTransform="matrix(1 0 0 .84587337 -46.999997 -272.73456)" gradientUnits="userSpaceOnUse" x1="58" x2="58" y1="393.95328" y2="324.65894"><stop offset="0" stop-color="#fff" stop-opacity="0"/><stop offset="1" stop-color="#fff" stop-opacity=".2"/></linearGradient><path d="m7 10.999992h49.999977v49.999977h-49.999977z" fill="#2e6ea9"/><path d="m7 59.999992h50v1.000009h-50z" opacity=".25"/><path d="m7 10.999992h50v1.000009h-50z" fill="#fff" opacity=".5"/><path d="m30 12v2h2v-2zm2 2v2h2v-2zm0 2h-2v2h2zm0 2v2h2v-2zm0 2h-2v2h2zm0 2v2h2v-2zm0 2h-2v2h2zm-2 3v4h1v4h2v-4h1v-4zm1 1h2v2h-2z" fill="#fff" opacity=".75"/><path d="m7 10.999992h49.999977v49.999977h-49.999977z" fill="url(#a)" opacity=".552"/></svg>