<?xml version="1.0" encoding="UTF-8"?>
<!DOCTYPE svg
PUBLIC "-//W3C//DTD SVG 1.1//EN"
       "http://www.w3.org/Graphics/SVG/1.1/DTD/svg11.dtd">
<svg viewBox="60 82 967 608" width="907px" height="526px" xmlns="http://www.w3.org/2000/svg" version="1.1">
   <line x1="224" y1="184" x2="234" y2="184" style="stroke:#cb0;stroke-width:1;"/>
   <line x1="485" y1="127" x2="495" y2="127" style="stroke:#cb0;stroke-width:1;"/>
   <line x1="234" y1="184" x2="485" y2="127" style="stroke:#cb0;stroke-width:1;"/>
   <line x1="231.5" y1="184" x2="227.96446609407" y2="187.53553390593" style="stroke:#cb0;stroke-width:2;"/>
   <line x1="231.5" y1="184" x2="227.96446609407" y2="180.46446609407" style="stroke:#cb0;stroke-width:2;"/>
   <line x1="490" y1="127" x2="486.46446609407" y2="130.53553390593" style="stroke:#cb0;stroke-width:2;"/>
   <line x1="490" y1="127" x2="486.46446609407" y2="123.46446609407" style="stroke:#cb0;stroke-width:2;"/>
   <line x1="224" y1="204" x2="234" y2="204" style="stroke:#bbb;stroke-width:1;"/>
   <line x1="449" y1="326" x2="459" y2="326" style="stroke:#bbb;stroke-width:1;"/>
   <line x1="234" y1="204" x2="449" y2="326" style="stroke:#bbb;stroke-width:1;"/>
   <line x1="231.5" y1="204" x2="227.96446609407" y2="207.53553390593" style="stroke:#bbb;stroke-width:2;"/>
   <line x1="231.5" y1="204" x2="227.96446609407" y2="200.46446609407" style="stroke:#bbb;stroke-width:2;"/>
   <line x1="454" y1="326" x2="450.46446609407" y2="329.53553390593" style="stroke:#bbb;stroke-width:2;"/>
   <line x1="454" y1="326" x2="450.46446609407" y2="322.46446609407" style="stroke:#bbb;stroke-width:2;"/>
   <line x1="814" y1="213" x2="804" y2="213" style="stroke:#bbb;stroke-width:1;"/>
   <line x1="572" y1="326" x2="562" y2="326" style="stroke:#bbb;stroke-width:1;"/>
   <line x1="804" y1="213" x2="572" y2="326" style="stroke:#bbb;stroke-width:1;"/>
   <line x1="806.5" y1="213" x2="810.03553390593" y2="216.53553390593" style="stroke:#bbb;stroke-width:2;"/>
   <line x1="806.5" y1="213" x2="810.03553390593" y2="209.46446609407" style="stroke:#bbb;stroke-width:2;"/>
   <line x1="567" y1="326" x2="570.53553390593" y2="329.53553390593" style="stroke:#bbb;stroke-width:2;"/>
   <line x1="567" y1="326" x2="570.53553390593" y2="322.46446609407" style="stroke:#bbb;stroke-width:2;"/>
   <line x1="814" y1="233" x2="804" y2="233" style="stroke:#0b0;stroke-width:1;"/>
   <line x1="572" y1="326" x2="562" y2="326" style="stroke:#0b0;stroke-width:1;"/>
   <line x1="804" y1="233" x2="572" y2="326" style="stroke:#0b0;stroke-width:1;"/>
   <line x1="806.5" y1="233" x2="810.03553390593" y2="236.53553390593" style="stroke:#0b0;stroke-width:2;"/>
   <line x1="806.5" y1="233" x2="810.03553390593" y2="229.46446609407" style="stroke:#0b0;stroke-width:2;"/>
   <line x1="567" y1="326" x2="570.53553390593" y2="329.53553390593" style="stroke:#0b0;stroke-width:2;"/>
   <line x1="567" y1="326" x2="570.53553390593" y2="322.46446609407" style="stroke:#0b0;stroke-width:2;"/>
   <line x1="184" y1="523" x2="194" y2="523" style="stroke:#0bf;stroke-width:1;"/>
   <line x1="203" y1="364" x2="193" y2="364" style="stroke:#0bf;stroke-width:1;"/>
   <line x1="194" y1="523" x2="203" y2="364" style="stroke:#0bf;stroke-width:1;"/>
   <line x1="191.5" y1="523" x2="187.96446609407" y2="526.53553390593" style="stroke:#0bf;stroke-width:2;"/>
   <line x1="191.5" y1="523" x2="187.96446609407" y2="519.46446609407" style="stroke:#0bf;stroke-width:2;"/>
   <line x1="198" y1="364" x2="201.53553390593" y2="367.53553390593" style="stroke:#0bf;stroke-width:2;"/>
   <line x1="198" y1="364" x2="201.53553390593" y2="360.46446609407" style="stroke:#0bf;stroke-width:2;"/>
   <line x1="184" y1="543" x2="194" y2="543" style="stroke:#cb0;stroke-width:1;"/>
   <line x1="449" y1="326" x2="459" y2="326" style="stroke:#cb0;stroke-width:1;"/>
   <line x1="194" y1="543" x2="449" y2="326" style="stroke:#cb0;stroke-width:1;"/>
   <line x1="191.5" y1="543" x2="187.96446609407" y2="546.53553390593" style="stroke:#cb0;stroke-width:2;"/>
   <line x1="191.5" y1="543" x2="187.96446609407" y2="539.46446609407" style="stroke:#cb0;stroke-width:2;"/>
   <line x1="454" y1="326" x2="450.46446609407" y2="329.53553390593" style="stroke:#cb0;stroke-width:2;"/>
   <line x1="454" y1="326" x2="450.46446609407" y2="322.46446609407" style="stroke:#cb0;stroke-width:2;"/>
   <line x1="743" y1="583" x2="733" y2="583" style="stroke:#c00;stroke-width:1;"/>
   <line x1="572" y1="326" x2="562" y2="326" style="stroke:#c00;stroke-width:1;"/>
   <line x1="733" y1="583" x2="572" y2="326" style="stroke:#c00;stroke-width:1;"/>
   <line x1="735.5" y1="583" x2="739.03553390593" y2="586.53553390593" style="stroke:#c00;stroke-width:2;"/>
   <line x1="735.5" y1="583" x2="739.03553390593" y2="579.46446609407" style="stroke:#c00;stroke-width:2;"/>
   <line x1="567" y1="326" x2="570.53553390593" y2="329.53553390593" style="stroke:#c00;stroke-width:2;"/>
   <line x1="567" y1="326" x2="570.53553390593" y2="322.46446609407" style="stroke:#c00;stroke-width:2;"/>
   <rect width="50" height="20" x="495" y="97" style="fill:#007;stroke:black;"/>
   <text width="50" height="20" x="500" y="111" style="fill:#fff;" font-family="Arial" font-size="16px"> autors</text>
   <rect width="50" height="20" x="495" y="117" style="fill:#aea;stroke:black;"/>
   <text width="50" height="20" x="500" y="131" style="fill:black;" font-family="Arial" font-size="16px">id</text>
   <rect width="50" height="20" x="495" y="137" style="fill:none;stroke:black;"/>
   <text width="50" height="20" x="500" y="151" style="fill:black;" font-family="Arial" font-size="16px">name</text>
   <rect width="50" height="20" x="495" y="157" style="fill:none;stroke:black;"/>
   <text width="50" height="20" x="500" y="171" style="fill:black;" font-family="Arial" font-size="16px">email</text>
   <rect width="123" height="20" x="101" y="134" style="fill:#007;stroke:black;"/>
   <text width="123" height="20" x="106" y="148" style="fill:#fff;" font-family="Arial" font-size="16px"> autors_packages</text>
   <rect width="123" height="20" x="101" y="154" style="fill:#aea;stroke:black;"/>
   <text width="123" height="20" x="106" y="168" style="fill:black;" font-family="Arial" font-size="16px">id</text>
   <rect width="123" height="20" x="101" y="174" style="fill:none;stroke:black;"/>
   <text width="123" height="20" x="106" y="188" style="fill:black;" font-family="Arial" font-size="16px">autor_id</text>
   <rect width="123" height="20" x="101" y="194" style="fill:none;stroke:black;"/>
   <text width="123" height="20" x="106" y="208" style="fill:black;" font-family="Arial" font-size="16px">package_id</text>
   <rect width="138" height="20" x="814" y="163" style="fill:#007;stroke:black;"/>
   <text width="138" height="20" x="819" y="177" style="fill:#fff;" font-family="Arial" font-size="16px"> dependencies</text>
   <rect width="138" height="20" x="814" y="183" style="fill:#aea;stroke:black;"/>
   <text width="138" height="20" x="819" y="197" style="fill:black;" font-family="Arial" font-size="16px">id</text>
   <rect width="138" height="20" x="814" y="203" style="fill:none;stroke:black;"/>
   <text width="138" height="20" x="819" y="217" style="fill:black;" font-family="Arial" font-size="16px">parent_package_id</text>
   <rect width="138" height="20" x="814" y="223" style="fill:none;stroke:black;"/>
   <text width="138" height="20" x="819" y="237" style="fill:black;" font-family="Arial" font-size="16px">child_package_id</text>
   <rect width="103" height="20" x="459" y="296" style="fill:#007;stroke:black;"/>
   <text width="103" height="20" x="464" y="310" style="fill:#fff;" font-family="Arial" font-size="16px"> packages</text>
   <rect width="103" height="20" x="459" y="316" style="fill:#aea;stroke:black;"/>
   <text width="103" height="20" x="464" y="330" style="fill:black;" font-family="Arial" font-size="16px">id</text>
   <rect width="103" height="20" x="459" y="336" style="fill:none;stroke:black;"/>
   <text width="103" height="20" x="464" y="350" style="fill:black;" font-family="Arial" font-size="16px">title</text>
   <rect width="103" height="20" x="459" y="356" style="fill:none;stroke:black;"/>
   <text width="103" height="20" x="464" y="370" style="fill:black;" font-family="Arial" font-size="16px">description</text>
   <rect width="103" height="20" x="459" y="376" style="fill:none;stroke:black;"/>
   <text width="103" height="20" x="464" y="390" style="fill:black;" font-family="Arial" font-size="16px">creation_date</text>
   <rect width="109" height="20" x="75" y="473" style="fill:#007;stroke:black;"/>
   <text width="109" height="20" x="80" y="487" style="fill:#fff;" font-family="Arial" font-size="16px"> packages_tags</text>
   <rect width="109" height="20" x="75" y="493" style="fill:#aea;stroke:black;"/>
   <text width="109" height="20" x="80" y="507" style="fill:black;" font-family="Arial" font-size="16px">id</text>
   <rect width="109" height="20" x="75" y="513" style="fill:none;stroke:black;"/>
   <text width="109" height="20" x="80" y="527" style="fill:black;" font-family="Arial" font-size="16px">tag_id</text>
   <rect width="109" height="20" x="75" y="533" style="fill:none;stroke:black;"/>
   <text width="109" height="20" x="80" y="547" style="fill:black;" font-family="Arial" font-size="16px">package_id</text>
   <rect width="50" height="20" x="143" y="334" style="fill:#007;stroke:black;"/>
   <text width="50" height="20" x="148" y="348" style="fill:#fff;" font-family="Arial" font-size="16px"> tags</text>
   <rect width="50" height="20" x="143" y="354" style="fill:#aea;stroke:black;"/>
   <text width="50" height="20" x="148" y="368" style="fill:black;" font-family="Arial" font-size="16px">id</text>
   <rect width="50" height="20" x="143" y="374" style="fill:none;stroke:black;"/>
   <text width="50" height="20" x="148" y="388" style="fill:black;" font-family="Arial" font-size="16px">name</text>
   <rect width="126" height="20" x="743" y="473" style="fill:#007;stroke:black;"/>
   <text width="126" height="20" x="748" y="487" style="fill:#fff;" font-family="Arial" font-size="16px"> versions</text>
   <rect width="126" height="20" x="743" y="493" style="fill:#aea;stroke:black;"/>
   <text width="126" height="20" x="748" y="507" style="fill:black;" font-family="Arial" font-size="16px">id</text>
   <rect width="126" height="20" x="743" y="513" style="fill:none;stroke:black;"/>
   <text width="126" height="20" x="748" y="527" style="fill:black;" font-family="Arial" font-size="16px">Version_Number</text>
   <rect width="126" height="20" x="743" y="533" style="fill:none;stroke:black;"/>
   <text width="126" height="20" x="748" y="547" style="fill:black;" font-family="Arial" font-size="16px">description</text>
   <rect width="126" height="20" x="743" y="553" style="fill:none;stroke:black;"/>
   <text width="126" height="20" x="748" y="567" style="fill:black;" font-family="Arial" font-size="16px">Release_Date</text>
   <rect width="126" height="20" x="743" y="573" style="fill:none;stroke:black;"/>
   <text width="126" height="20" x="748" y="587" style="fill:black;" font-family="Arial" font-size="16px">package_id</text>
</svg>
